#N canvas 529 278 527 530 10;
#X obj 361 291 output~;
#X floatatom 179 190 5 0 0 0 - - -;
#X obj 86 156 bng 15 250 50 0 empty empty empty 17 7 0 10 -262144 -1
-1;
#X obj 36 52 tgl 30 0 empty empty empty 17 7 0 10 -261682 -1 -1 0 1
;
#X obj 303 222 freeverb~;
#X obj 339 52 hsl 36 24 0 1 0 0 empty w1 empty -2 -8 0 10 -203904 -1
-1 1750 1;
#X obj 339 109 hsl 36 24 0 1 0 0 empty d1 empty -2 -8 0 10 -203904
-1 -1 3500 1;
#X obj 339 164 hsl 36 24 0 1 0 0 empty r1 empty -2 -8 0 10 -203904
-1 -1 3500 1;
#X msg 336 138 dry \$1;
#X msg 336 194 roomsize \$1;
#X obj 426 54 vsl 15 128 0 1 0 0 empty v1 empty 0 -9 0 10 -204786 -1
-1 12700 1;
#X obj 361 254 *~;
#X obj 390 254 *~;
#X text 415 35 VOLUME;
#X obj 361 372 loadbang;
#X obj 86 125 metro 5000;
#X obj 72 434 *~;
#X obj 186 54 vsl 15 128 250 9000 1 0 empty bpm1 empty 0 -9 0 10 -261682
-1 -1 10617 1;
#X msg 21 324 start;
#X obj 96 349 print;
#X obj 61 268 t b b;
#X obj 55 378 readsf~ 2;
#X obj 151 189 int;
#X obj 103 435 *~;
#N canvas 83 168 369 364 faderhelper 0;
#X obj 150 67 bng 15 250 50 0 empty empty empty 17 7 0 10 -262144 -1
-1;
#X floatatom 204 68 5 0 0 0 - - -;
#X obj 162 266 line~;
#X obj 96 234 pack 0 f;
#X obj 177 124 delay;
#X obj 177 158 pack 1 f;
#X obj 212 237 loadbang;
#X msg 177 236 1 0;
#X text 244 67 fade time;
#X text 42 65 fade out then in;
#X obj 150 39 inlet;
#X obj 193 193 outlet;
#X obj 162 300 outlet~;
#X obj 204 40 inlet;
#X obj 70 188 inlet;
#X connect 0 0 3 0;
#X connect 0 0 4 0;
#X connect 1 0 3 1;
#X connect 1 0 4 1;
#X connect 1 0 5 1;
#X connect 2 0 12 0;
#X connect 3 0 2 0;
#X connect 4 0 5 0;
#X connect 5 0 2 0;
#X connect 5 0 11 0;
#X connect 6 0 7 0;
#X connect 7 0 2 0;
#X connect 10 0 0 0;
#X connect 13 0 1 0;
#X connect 14 0 3 0;
#X restore 46 234 pd faderhelper;
#X obj 127 52 hsl 36 30 10 250 0 0 empty fader1 empty -2 -8 0 10 -261682
-1 -1 583 1;
#X text 34 25 BEGIN;
#X text 175 25 GLOBAL;
#X floatatom 127 89 5 0 0 0 - - -;
#X obj 101 89 int;
#X text 132 25 FADE;
#X obj 80 52 bng 30 250 50 0 empty empty empty 17 7 0 10 -261682 -1
-1;
#X text 125 35 IN/OUT;
#X text 76 25 SAMPLE;
#X text 34 35 & END;
#X msg 262 118 freeze \$1;
#X obj 288 52 vradio 30 1 0 2 empty freeze1 empty 0 -8 0 10 -203904
-1 -1 0;
#X text 284 25 FREEZE;
#X text 284 35 REVERB;
#X text 81 35 STOP;
#X text 276 58 0;
#X text 276 89 1;
#N canvas 1319 408 450 300 wethelper 0;
#X msg 77 151 wet \$1;
#X obj 77 127 line;
#X msg 77 104 \$1 100;
#X obj 77 51 inlet;
#X obj 77 206 outlet;
#X connect 0 0 4 0;
#X connect 1 0 0 0;
#X connect 2 0 1 0;
#X connect 3 0 2 0;
#X restore 336 81 pd wethelper;
#X text 200 468 SAMPLES TAKEN FROM;
#X obj 88 296 random 117;
#X msg 361 399 \; v1 1 \; w1 0.5 \; d1 1 \; r1 1 \; bpm1 5000 \; fader1
50 \; freeze1 0 \;;
#X text 201 484 Ayako Hotta-Lister -;
#X text 201 495 London No Yoru No Ame;
#X text 181 35 RATE;
#X msg 88 323 open WAVs/AyakoHottaLister_\$1.wav start;
#X connect 1 0 15 1;
#X connect 2 0 24 1;
#X connect 3 0 15 0;
#X connect 3 0 31 0;
#X connect 4 0 11 0;
#X connect 4 1 12 0;
#X connect 5 0 42 0;
#X connect 6 0 8 0;
#X connect 7 0 9 0;
#X connect 8 0 4 0;
#X connect 9 0 4 0;
#X connect 10 0 11 1;
#X connect 10 0 12 1;
#X connect 11 0 0 0;
#X connect 12 0 0 1;
#X connect 14 0 45 0;
#X connect 15 0 2 0;
#X connect 16 0 4 0;
#X connect 17 0 22 0;
#X connect 18 0 21 0;
#X connect 20 0 18 0;
#X connect 20 1 44 0;
#X connect 21 0 16 0;
#X connect 21 1 23 0;
#X connect 22 0 1 0;
#X connect 23 0 4 1;
#X connect 24 0 16 1;
#X connect 24 0 23 1;
#X connect 24 1 20 0;
#X connect 25 0 29 0;
#X connect 28 0 24 2;
#X connect 29 0 28 0;
#X connect 31 0 24 0;
#X connect 35 0 4 0;
#X connect 36 0 35 0;
#X connect 42 0 4 0;
#X connect 44 0 49 0;
#X connect 49 0 19 0;
#X connect 49 0 21 0;
#X coords 0 0 1 1 425 350 0;
